<svg width="416" height="352" viewBox="0 0 416 352" fill="none" xmlns="http://www.w3.org/2000/svg">
<path d="M165.321 80.0654C190.27 80.0654 214.578 84.9093 237.728 94.5572C260.038 103.805 280.068 117.056 297.38 134.029C314.493 150.763 327.966 170.419 337.402 192.317C347.198 215.056 352.115 239.075 352.035 263.655V263.775V263.895C352.035 287.835 346.918 313.416 336.722 340.118C327.646 364.017 314.053 389.598 296.301 416.14C266.674 460.336 225.214 507.214 172.998 555.453C90.1156 632.036 8.15326 686.4 -5.04068 695.007C-14.7162 688.762 -98.118 633.998 -183.039 555.494C-235.255 507.254 -276.716 460.376 -306.302 416.18C-323.894 389.878 -337.528 364.217 -346.804 339.958C-356.919 313.456 -362.077 287.875 -362.077 263.935C-362.077 239.996 -357.119 215.096 -347.363 192.357C-337.928 170.419 -324.494 150.803 -307.302 134.029C-290.03 117.096 -269.959 103.845 -247.609 94.5572C-224.58 84.9894 -200.031 80.1054 -174.683 80.1054C-139.579 80.1054 -105.275 89.7132 -75.4884 107.888C-68.4516 112.172 -61.6947 116.975 -55.3776 122.1L-5.00073 163.013L45.3762 122.1C51.6933 116.975 58.4502 112.212 65.4869 107.888C95.2333 89.7132 129.537 80.1054 164.681 80.1054H164.921H165.321M165.321 0C165.121 0 164.921 0 164.681 0C114.824 0 66.1266 13.6912 23.866 39.5123C13.7507 45.6773 4.15506 52.4828 -4.96075 59.8889C-14.0766 52.4828 -23.6721 45.7173 -33.7875 39.5123C-76.088 13.6912 -124.746 0 -174.603 0C-210.506 0 -245.33 6.88562 -278.195 20.5768C-309.981 33.7475 -338.607 52.683 -363.196 76.7827C-387.665 100.682 -407.256 129.185 -420.77 160.651C-434.843 193.358 -442 228.106 -442 263.895C-442 297.643 -435.123 332.792 -421.449 368.541C-410.015 398.445 -393.622 429.431 -372.672 460.736C-339.487 510.257 -293.868 561.939 -237.214 614.302C-143.337 701.132 -50.3399 761.101 -46.4217 763.503L-22.4327 778.916C-17.1152 782.319 -11.0379 784 -5.00073 784C1.0365 784 7.15369 782.319 12.4313 778.916L36.4203 763.503C40.3784 760.981 133.256 701.092 227.213 614.302C283.867 561.939 329.486 510.257 362.67 460.736C383.621 429.431 400.093 398.445 411.448 368.541C425.122 332.792 431.999 297.643 431.999 263.895C432.119 228.146 424.922 193.398 410.848 160.651C397.294 129.226 377.743 100.722 353.275 76.7827C328.806 52.7631 299.939 33.6675 268.274 20.5768C235.649 7.00572 200.625 0 165.281 0H165.321Z" fill="white"/>
</svg>
